<svg xmlns="http://www.w3.org/2000/svg" version="1.1" width="1500" height="1500" viewBox="0 0 816 816" x="0" y="0">
<!--    <rect width="100%" height="100%" fill="transparent"></rect>-->
    <g transform="translate(198.2 192.46)scale(.6768)">
        <filter id="a" width="140%" height="140%" x="-20%" y="-20%">
            <feGaussianBlur in="SourceAlpha"></feGaussianBlur>
            <feOffset result="oBlur"></feOffset>
            <feFlood flood-color="#9C27B0" flood-opacity="1"></feFlood>
            <feComposite in2="oBlur" operator="in"></feComposite>
            <feMerge>
                <feMergeNode></feMergeNode>
                <feMergeNode in="SourceGraphic"></feMergeNode>
            </feMerge>
        </filter>
        <path fill="#000" d="M507.5.09C236.1 19.28 19.28 236.1.09 507.5c-1.5 21.18 15.22 39.21 36.45 39.21h473.64c20.18 0 36.54-16.36 36.54-36.54V36.54c0-21.23-18.03-37.94-39.21-36.45Z" filter="url(#a)" paint-order="stroke" transform="translate(-273.36 -273.35)"></path>
    </g>
    <g transform="rotate(90 217.21 410.96)scale(.6768)">
        <filter id="b" width="140%" height="140%" x="-20%" y="-20%">
            <feGaussianBlur in="SourceAlpha"></feGaussianBlur>
            <feOffset result="oBlur"></feOffset>
            <feFlood flood-color="#9C27B0" flood-opacity="1"></feFlood>
            <feComposite in2="oBlur" operator="in"></feComposite>
            <feMerge>
                <feMergeNode></feMergeNode>
                <feMergeNode in="SourceGraphic"></feMergeNode>
            </feMerge>
        </filter>
        <path fill="#000" d="M507.5.09C236.1 19.28 19.28 236.1.09 507.5c-1.5 21.18 15.22 39.21 36.45 39.21h473.64c20.18 0 36.54-16.36 36.54-36.54V36.54c0-21.23-18.03-37.94-39.21-36.45Z" filter="url(#b)" paint-order="stroke" transform="translate(-273.36 -273.35)"></path>
    </g>
    <g transform="translate(626.89 623.54)scale(.6768)">
        <filter id="c" width="140%" height="140%" x="-20%" y="-20%">
            <feGaussianBlur in="SourceAlpha"></feGaussianBlur>
            <feOffset result="oBlur"></feOffset>
            <feFlood flood-color="#9C27B0" flood-opacity="1"></feFlood>
            <feComposite in2="oBlur" operator="in"></feComposite>
            <feMerge>
                <feMergeNode></feMergeNode>
                <feMergeNode in="SourceGraphic"></feMergeNode>
            </feMerge>
        </filter>
        <path fill="#000" d="M507.5.09C236.1 19.28 19.28 236.1.09 507.5c-1.5 21.18 15.22 39.21 36.45 39.21h473.64c20.18 0 36.54-16.36 36.54-36.54V36.54c0-21.23-18.03-37.94-39.21-36.45Z" filter="url(#c)" paint-order="stroke" transform="translate(-273.36 -273.35)"></path>
    </g>
    <g transform="rotate(-90 410.86 212.68)scale(.6768)">
<!--        <filter id="d" width="140%" height="140%" x="-20%" y="-20%">-->
<!--            <feGaussianBlur in="SourceAlpha"></feGaussianBlur>-->
<!--            <feOffset result="oBlur"></feOffset>-->
<!--            <feFlood flood-color="#9C27B0" flood-opacity="1"></feFlood>-->
<!--            <feComposite in2="oBlur" operator="in"></feComposite>-->
<!--            <feMerge>-->
<!--                <feMergeNode></feMergeNode>-->
<!--                <feMergeNode in="SourceGraphic"></feMergeNode>-->
<!--            </feMerge>-->
<!--        </filter>-->
        <path fill="#000" d="M507.5.09C236.1 19.28 19.28 236.1.09 507.5c-1.5 21.18 15.22 39.21 36.45 39.21h473.64c20.18 0 36.54-16.36 36.54-36.54V36.54c0-21.23-18.03-37.94-39.21-36.45Z" filter="url(#d)" paint-order="stroke" transform="translate(-273.36 -273.35)"></path>
    </g>
    <path fill="#fff" fill-rule="evenodd" d="M581.322 318.038c14.582 3.449 29.85 1.772 43.146-5.903l-7.267-12.589c-25.577 10.76 0 0 0 0-25.577 10.76-55.892.858-70.27-24.049-15.038 8.682-25.211 14.555-12.063 6.966 8.042 13.927 19.594 24.362 32.502 30.601V377.2h13.952zm55.514-41.513-18.17 10.49c-21.675 12.514-49.504 4.895-62.155-17.015l-63.456-109.914c-12.652-21.913-5.346-49.816 16.338-62.333l18.17-10.493c18.22-10.519 40.79-6.808 55.037 7.654l-34.964 20.19 6.829 11.826 36.248-20.925-.498-.864 62.489 108.237-.47-.816-36.248 20.928 6.829 11.83 34.94-20.172c5.349 19.537-2.722 40.876-20.919 51.38Zm-39.08-158.875 6.83 11.83-36.246 20.927-6.832-11.83zm13.518 23.659 6.83 11.83-36.248 20.927-6.832-11.83zm13.569 23.754 6.829 11.83-36.245 20.927-6.832-11.83zm13.518 23.659 6.826 11.823-36.25 20.93-6.83-11.829 36.25-20.927zm0 0"></path>
    <path fill="#fff" d="M616.38 677.63h-20.62v-83.32h-12.25v-19.8h45.12v19.8h-12.25z"></path>
    <rect width="45.12" height="103.12" x="-22.56" y="-51.56" fill="none" rx="0" ry="0" transform="translate(606.57 626.57)"></rect>
    <path fill="#fff" d="M650.95 678.57q-7.03 0-10.75-2.93-3.72-2.93-5.07-8.17-1.35-5.25-1.35-12.28v-65.45h21.1v62.99q0 5.27.82 7.35t3.87 2.08q3.28 0 4.13-2.92.85-2.93.85-7.56v-61.94h20.91v87.89h-20.97v-9.37q-2 5.04-4.78 7.67-2.78 2.64-8.76 2.64"></path>
    <rect width="51.68" height="88.83" x="-25.84" y="-44.41" fill="none" rx="0" ry="0" transform="translate(660.12 634.66)"></rect>
    <path fill="#fff" d="M714.88 677.63H693.9v-87.89h20.98v11.19q1.17-5.03 4.36-8.58 3.2-3.54 8.88-3.54 9.14 0 13.27 5.62 4.13 5.63 4.13 15.41v67.79h-20.68v-65.62q0-2.58-1.06-4.78-1.05-2.19-3.63-2.19-2.4 0-3.54 1.67-1.15 1.67-1.44 4.16-.29 2.49-.29 4.95z"></path>
    <rect width="51.62" height="88.82" x="-25.81" y="-44.41" fill="none" rx="0" ry="0" transform="translate(720.21 633.72)"></rect>
    <path fill="#fff" d="M778.33 678.57q-9.37 0-14.94-3.51-5.56-3.52-7.97-10.14-2.4-6.62-2.4-15.94v-35.33q0-12.25 7.03-18.55 7.03-6.29 19.34-6.29 25.31 0 25.31 24.84v6.39q0 11.6-.23 15.58H774v16.99q0 2.35.29 4.6.29 2.26 1.32 3.72 1.03 1.47 3.31 1.47 3.28 0 4.1-2.84.82-2.84.82-7.41v-8.44h20.86v4.98q0 9.84-2.43 16.49-2.43 6.65-8.2 10.02-5.77 3.37-15.74 3.37m-4.45-65.21v11.83h9.96v-11.83q0-4.75-1.17-6.83t-3.52-2.08q-2.51 0-3.89 1.99-1.38 1.99-1.38 6.92"></path>
    <rect width="51.68" height="89.76" x="-25.84" y="-44.88" fill="none" rx="0" ry="0" transform="translate(779.36 634.19)"></rect>
    <path fill="#fff" d="M488.58 786.11h-20.62v-83.32h-12.25v-19.8h45.12v19.8h-12.25z"></path>
    <rect width="45.12" height="103.12" x="-22.56" y="-51.56" fill="none" rx="0" ry="0" transform="translate(478.77 735.05)"></rect>
    <path fill="#fff" d="M522.21 787.05q-7.32 0-11.16-3.4t-5.24-9.31q-1.41-5.92-1.41-13.42 0-8.03 1.58-13.16 1.59-5.12 5.42-8.4 3.84-3.29 10.58-5.57l13.01-4.45v-9.03q0-7.09-4.63-7.09-4.22 0-4.22 5.75v5.27h-20.39q-.06-.47-.06-1.2v-1.67q0-13.13 6.18-18.61 6.18-5.47 19.6-5.47 7.03 0 12.6 2.49 5.57 2.49 8.82 7.35 3.25 4.86 3.25 12.01v66.97h-20.86v-10.43q-1.52 5.51-5.04 8.44-3.51 2.93-8.03 2.93m8.27-16.29q2.57 0 3.51-2.17.94-2.16.94-4.68v-24.5q-4.34 1.76-6.74 4.43-2.4 2.66-2.4 7.82v11.31q0 7.79 4.69 7.79"></path>
    <rect width="51.74" height="89.76" x="-25.87" y="-44.88" fill="none" rx="0" ry="0" transform="translate(530.77 742.67)"></rect>
    <path fill="#fff" d="M585.2 786.11h-20.97v-87.89h20.97v11.19q1.17-5.03 4.37-8.58 3.19-3.54 8.87-3.54 9.15 0 13.28 5.62 4.13 5.63 4.13 15.41v67.79h-20.69v-65.62q0-2.58-1.05-4.78-1.06-2.19-3.63-2.19-2.41 0-3.55 1.67-1.14 1.67-1.43 4.16-.3 2.49-.3 4.95z"></path>
    <rect width="51.62" height="88.82" x="-25.81" y="-44.41" fill="none" rx="0" ry="0" transform="translate(590.54 742.2)"></rect>
    <path fill="#fff" d="M647.72 801.35q-6.09 0-10.46-.62-4.36-.61-7.82-2.19-3.46-1.59-6.91-4.46l7.09-12.13q7.67 4.57 15.35 4.57 5.04 0 7.5-3.22t2.46-8.38v-8.61q-2.52 9.02-13.42 9.02-6.27 0-10.14-2.99-3.86-2.98-5.62-8.08-1.76-5.1-1.76-11.37v-31.58q0-7.09 1.53-12.51 1.52-5.42 5.33-8.47 3.81-3.04 10.66-3.04 5.8 0 9.05 2.93 3.26 2.92 4.37 7.91v-9.91h21.39v75.35q0 14.95-6.89 21.36-6.88 6.42-21.71 6.42m2.29-41.84q4.92 0 4.92-8.9v-29.89q0-2.4-1.38-4.92-1.37-2.52-3.78-2.52-3.04 0-3.81 2.26-.76 2.25-.76 5.18v29.89q0 3.16.79 6.03t4.02 2.87"></path>
    <rect width="53.79" height="104.06" x="-26.89" y="-52.03" fill="none" rx="0" ry="0" transform="translate(649.92 749.82)"></rect>
    <path fill="#fff" d="M705.85 786.11h-21.33V682.99h21.33z"></path>
    <rect width="21.33" height="103.12" x="-10.66" y="-51.56" fill="none" rx="0" ry="0" transform="translate(695.68 735.05)"></rect>
    <path fill="#fff" d="M738.89 787.05q-9.37 0-14.94-3.51-5.56-3.52-7.97-10.14-2.4-6.62-2.4-15.94v-35.33q0-12.25 7.03-18.55 7.03-6.29 19.34-6.29 25.31 0 25.31 24.84v6.39q0 11.6-.23 15.58h-30.47v16.99q0 2.35.29 4.6.29 2.26 1.32 3.72 1.02 1.47 3.31 1.47 3.28 0 4.1-2.84.82-2.84.82-7.41v-8.44h20.86v4.98q0 9.84-2.43 16.49-2.43 6.65-8.2 10.02-5.78 3.37-15.74 3.37m-4.45-65.21v11.83h9.96v-11.83q0-4.75-1.17-6.83t-3.52-2.08q-2.52 0-3.89 1.99-1.38 1.99-1.38 6.92"></path>
    <rect width="51.68" height="89.76" x="-25.84" y="-44.88" fill="none" rx="0" ry="0" transform="translate(739.92 742.67)"></rect>
    <path fill="#fff" d="M794.21 786.11h-21.33v-87.89h21.33v9.79q1.52-5.1 5.39-7.97 3.86-2.87 9.72-2.87v17.52q-2.57 0-6.15.55-3.57.56-6.27 1.53-2.69.96-2.69 2.14z"></path>
    <rect width="36.44" height="88.94" x="-18.22" y="-44.47" fill="none" rx="0" ry="0" transform="translate(791.6 742.14)"></rect>
    <path fill="#fff"
          d="M25.74 258.874c-7.536 0-12.56-5.024-12.56-12.56V128.25c0-7.536 5.024-12.56 12.56-12.56s12.56 5.024 12.56 12.56v118.064c0 6.28-5.024 12.56-12.56 12.56m50.24 35.168c-7.536 0-12.56-5.024-12.56-12.56v-188.4c0-7.536 5.024-12.56 12.56-12.56s12.56 5.024 12.56 12.56v188.4c0 7.536-5.024 12.56-12.56 12.56m50.24 50.24c-7.536 0-12.56-5.024-12.56-12.56V42.842c0-7.536 5.024-12.56 12.56-12.56s12.56 5.024 12.56 12.56v288.88c0 7.536-5.024 12.56-12.56 12.56m50.24-37.68c-7.536 0-12.56-5.024-12.56-12.56V80.522c0-7.536 5.024-12.56 12.56-12.56s12.56 5.024 12.56 12.56v213.52c0 7.536-5.024 12.56-12.56 12.56m50.24-47.728c-7.536 0-12.56-5.024-12.56-12.56V128.25c0-7.536 5.024-12.56 12.56-12.56s12.56 5.024 12.56 12.56v118.064c0 6.28-5.024 12.56-12.56 12.56m50.24 35.168c-7.536 0-12.56-5.024-12.56-12.56v-188.4c0-7.536 5.024-12.56 12.56-12.56s12.56 5.024 12.56 12.56v188.4c0 7.536-5.024 12.56-12.56 12.56m50.24 37.68c-7.536 0-12.56-5.024-12.56-12.56V55.402c0-7.536 5.024-12.56 12.56-12.56s12.56 5.024 12.56 12.56v263.76c0 7.536-5.024 12.56-12.56 12.56m50.24-72.848c-7.536 0-12.56-5.024-12.56-12.56V128.25c0-7.536 5.024-12.56 12.56-12.56s12.56 5.024 12.56 12.56v118.064c0 6.28-5.024 12.56-12.56 12.56M2.818 736.95c.523 4.748 4.992 8.728 9.769 8.699H144.46c5.114 0 9.769-4.655 9.769-9.768v-9.769c0-5.114-4.655-9.768-9.769-9.768H12.587c-5.114 0-9.769 4.654-9.769 9.768zm0-107.452c.523 4.747 4.992 8.728 9.769 8.699h210.02c5.114 0 9.769-4.655 9.769-9.769v-9.768c0-5.114-4.655-9.769-9.769-9.769H12.587c-5.114 0-9.769 4.655-9.769 9.769zm0-107.453c.523 4.748 4.992 8.729 9.769 8.7h92.8c5.113 0 9.768-4.655 9.768-9.77v-9.768c0-5.113-4.655-9.768-9.768-9.768h-92.8c-5.114 0-9.769 4.655-9.769 9.768zm122.105 24.421c.523 4.748 4.992 8.729 9.769 8.7h48.842c5.114 0 9.768-4.655 9.768-9.77v-58.61c0-5.113-4.654-9.768-9.768-9.768h-48.842c-5.114 0-9.769 4.655-9.769 9.768zm19.537-10.838v-4.884h29.305v4.884zm0-14.652v-9.769h29.305v9.769zm0-19.537v-4.884h29.305v4.884zm19.537 259.932c.523 4.748 4.992 8.728 9.768 8.699h48.842c5.114 0 9.769-4.655 9.769-9.768v-58.61c0-5.115-4.655-9.77-9.769-9.77h-48.842c-5.113 0-9.768 4.655-9.768 9.77zm19.537-10.838v-4.884h29.305v4.884zm0-14.652v-9.769h29.305v9.769zm0-19.537v-4.884h29.305v4.884zm19.537-194.299c.522 4.748 4.991 8.729 9.768 8.7h170.947c5.114 0 9.768-4.655 9.768-9.77v-9.768c0-5.113-4.654-9.768-9.768-9.768H212.84c-5.114 0-9.768 4.655-9.768 9.768zm39.073 214.905c.523 4.748 4.992 8.728 9.769 8.699h131.873c5.114 0 9.768-4.655 9.768-9.768v-9.769c0-5.114-4.654-9.768-9.768-9.768H251.913c-5.114 0-9.769 4.654-9.769 9.768zm0-83.031c.523 4.747 4.992 8.728 9.769 8.699h48.842c5.113 0 9.768-4.655 9.768-9.769v-58.61c0-5.114-4.655-9.769-9.768-9.769h-48.842c-5.114 0-9.769 4.655-9.769 9.769zm19.537-10.838v-4.884h29.305v4.884zm0-14.653v-9.768h29.305v9.768zm0-19.537v-4.884h29.305v4.884zm58.61 20.607c.523 4.747 4.992 8.728 9.769 8.699h53.726c5.114 0 9.768-4.655 9.768-9.769v-9.768c0-5.114-4.654-9.769-9.768-9.769H330.06c-5.114 0-9.769 4.655-9.769 9.769z"></path>
</svg>